<svg width="24" height="19" viewBox="0 0 24 19" fill="none" xmlns="http://www.w3.org/2000/svg">
<path fill-rule="evenodd" clip-rule="evenodd" d="M4.90708 7.01107C5.65086 7.01107 6.36418 6.7156 6.89011 6.18967C7.41604 5.66374 7.71151 4.95042 7.71151 4.20664C7.71151 3.46286 7.41604 2.74954 6.89011 2.22361C6.36418 1.69768 5.65086 1.40221 4.90708 1.40221C4.1633 1.40221 3.44998 1.69768 2.92405 2.22361C2.39812 2.74954 2.10265 3.46286 2.10265 4.20664C2.10265 4.95042 2.39812 5.66374 2.92405 6.18967C3.44998 6.7156 4.1633 7.01107 4.90708 7.01107ZM4.90708 8.41328C5.45951 8.41328 6.00652 8.30448 6.51689 8.09307C7.02727 7.88167 7.491 7.57181 7.88163 7.18119C8.27225 6.79057 8.58211 6.32683 8.79351 5.81645C9.00492 5.30608 9.11372 4.75907 9.11372 4.20664C9.11372 3.65422 9.00492 3.1072 8.79351 2.59683C8.58211 2.08646 8.27225 1.62272 7.88163 1.2321C7.491 0.841474 7.02727 0.531615 6.51689 0.320212C6.00652 0.108808 5.45951 -8.23176e-09 4.90708 0C3.79141 1.66248e-08 2.72144 0.443199 1.93254 1.2321C1.14364 2.021 0.700439 3.09097 0.700439 4.20664C0.700439 5.32231 1.14364 6.39229 1.93254 7.18119C2.72144 7.97009 3.79141 8.41328 4.90708 8.41328Z" fill="#2D2D2D" style="fill:#2D2D2D;fill:color(display-p3 0.1755 0.1755 0.1755);fill-opacity:1;"/>
<path fill-rule="evenodd" clip-rule="evenodd" d="M3.30081 6.86565C3.3661 6.93078 3.41791 7.00815 3.45325 7.09333C3.4886 7.17851 3.50679 7.26982 3.50679 7.36204C3.50679 7.45426 3.4886 7.54557 3.45325 7.63075C3.41791 7.71593 3.3661 7.7933 3.30081 7.85842L2.82686 8.33097C1.91477 9.24331 1.40233 10.4805 1.40221 11.7706V14.3731C1.40221 14.5591 1.32835 14.7374 1.19686 14.8689C1.06538 15.0003 0.887052 15.0742 0.701107 15.0742C0.515162 15.0742 0.336833 15.0003 0.205349 14.8689C0.0738664 14.7374 0 14.5591 0 14.3731V11.7706C0.000198777 10.1087 0.660423 8.51485 1.8355 7.3396L2.30804 6.86565C2.37317 6.80036 2.45054 6.74856 2.53572 6.71322C2.62089 6.67787 2.71221 6.65968 2.80443 6.65968C2.89665 6.65968 2.98796 6.67787 3.07314 6.71322C3.15832 6.74856 3.23569 6.80036 3.30081 6.86565ZM19.8357 6.44499C19.7704 6.51012 19.7186 6.58749 19.6833 6.67266C19.6479 6.75784 19.6297 6.84915 19.6297 6.94137C19.6297 7.03359 19.6479 7.12491 19.6833 7.21009C19.7186 7.29526 19.7704 7.37263 19.8357 7.43776L20.3097 7.9103C20.7614 8.36201 21.1196 8.89826 21.3641 9.48843C21.6085 10.0786 21.7343 10.7111 21.7343 11.3499V14.3731C21.7343 14.5591 21.8082 14.7374 21.9397 14.8689C22.0712 15.0003 22.2495 15.0742 22.4354 15.0742C22.6214 15.0742 22.7997 15.0003 22.9312 14.8689C23.0627 14.7374 23.1365 14.5591 23.1365 14.3731V11.3499C23.1363 9.688 22.4761 8.09419 21.301 6.91894L20.8285 6.44499C20.7634 6.3797 20.686 6.3279 20.6008 6.29255C20.5156 6.25721 20.4243 6.23901 20.3321 6.23901C20.2399 6.23901 20.1486 6.25721 20.0634 6.29255C19.9782 6.3279 19.9008 6.3797 19.8357 6.44499Z" fill="#2D2D2D" style="fill:#2D2D2D;fill:color(display-p3 0.1755 0.1755 0.1755);fill-opacity:1;"/>
<path fill-rule="evenodd" clip-rule="evenodd" d="M17.5263 7.01107C16.7825 7.01107 16.0692 6.7156 15.5433 6.18967C15.0173 5.66374 14.7219 4.95042 14.7219 4.20664C14.7219 3.46286 15.0173 2.74954 15.5433 2.22361C16.0692 1.69768 16.7825 1.40221 17.5263 1.40221C18.2701 1.40221 18.9834 1.69768 19.5093 2.22361C20.0353 2.74954 20.3307 3.46286 20.3307 4.20664C20.3307 4.95042 20.0353 5.66374 19.5093 6.18967C18.9834 6.7156 18.2701 7.01107 17.5263 7.01107ZM17.5263 8.41328C16.9739 8.41328 16.4269 8.30448 15.9165 8.09307C15.4061 7.88167 14.9424 7.57181 14.5518 7.18119C14.1611 6.79057 13.8513 6.32683 13.6399 5.81645C13.4285 5.30608 13.3197 4.75907 13.3197 4.20664C13.3197 3.65422 13.4285 3.1072 13.6399 2.59683C13.8513 2.08646 14.1611 1.62272 14.5518 1.2321C14.9424 0.841474 15.4061 0.531615 15.9165 0.320212C16.4269 0.108808 16.9739 -8.23176e-09 17.5263 0C18.642 1.66248e-08 19.712 0.443199 20.5009 1.2321C21.2898 2.021 21.7329 3.09097 21.7329 4.20664C21.7329 5.32231 21.2898 6.39229 20.5009 7.18119C19.712 7.97009 18.642 8.41328 17.5263 8.41328ZM11.2163 12.9705C10.2866 12.9705 9.39497 13.3398 8.73756 13.9972C8.08014 14.6546 7.71081 15.5463 7.71081 16.476V18.2989C7.71081 18.4848 7.63694 18.6632 7.50546 18.7947C7.37398 18.9261 7.19565 19 7.0097 19C6.82376 19 6.64543 18.9261 6.51394 18.7947C6.38246 18.6632 6.30859 18.4848 6.30859 18.2989V16.476C6.30859 15.1744 6.82566 13.9261 7.74604 13.0057C8.66642 12.0853 9.91473 11.5683 11.2163 11.5683C12.518 11.5683 13.7663 12.0853 14.6866 13.0057C15.607 13.9261 16.1241 15.1744 16.1241 16.476V18.2989C16.1241 18.4848 16.0502 18.6632 15.9187 18.7947C15.7873 18.9261 15.6089 19 15.423 19C15.237 19 15.0587 18.9261 14.9272 18.7947C14.7957 18.6632 14.7219 18.4848 14.7219 18.2989V16.476C14.7219 16.0157 14.6312 15.5598 14.455 15.1345C14.2789 14.7092 14.0207 14.3227 13.6951 13.9972C13.3696 13.6717 12.9832 13.4135 12.5579 13.2373C12.1325 13.0612 11.6767 12.9705 11.2163 12.9705Z" fill="#2D2D2D" style="fill:#2D2D2D;fill:color(display-p3 0.1755 0.1755 0.1755);fill-opacity:1;"/>
<path fill-rule="evenodd" clip-rule="evenodd" d="M11.2157 10.8681C11.9595 10.8681 12.6728 10.5727 13.1987 10.0467C13.7246 9.5208 14.0201 8.80748 14.0201 8.0637C14.0201 7.31992 13.7246 6.6066 13.1987 6.08067C12.6728 5.55474 11.9595 5.25927 11.2157 5.25927C10.4719 5.25927 9.75858 5.55474 9.23265 6.08067C8.70671 6.6066 8.41125 7.31992 8.41125 8.0637C8.41125 8.80748 8.70671 9.5208 9.23265 10.0467C9.75858 10.5727 10.4719 10.8681 11.2157 10.8681ZM11.2157 12.2703C12.3313 12.2703 13.4013 11.8271 14.1902 11.0382C14.9791 10.2493 15.4223 9.17937 15.4223 8.0637C15.4223 6.94803 14.9791 5.87805 14.1902 5.08915C13.4013 4.30025 12.3313 3.85706 11.2157 3.85706C10.1 3.85706 9.03003 4.30025 8.24113 5.08915C7.45223 5.87805 7.00903 6.94803 7.00903 8.0637C7.00903 9.17937 7.45223 10.2493 8.24113 11.0382C9.03003 11.8271 10.1 12.2703 11.2157 12.2703Z" fill="#2D2D2D" style="fill:#2D2D2D;fill:color(display-p3 0.1755 0.1755 0.1755);fill-opacity:1;"/>
</svg>
