<svg width="25" height="31" viewBox="0 0 25 31" fill="none" xmlns="http://www.w3.org/2000/svg">
<path fill-rule="evenodd" clip-rule="evenodd" d="M12.0121 0C8.09242 0 6.08643 3.1722 6.02045 7.07844C6.02045 7.11915 6.01445 7.15869 6.01328 7.19853V8.39828H1.21426C0.551625 8.39828 0.0145031 8.93548 0.0145031 9.59804V19.1961C-0.0289207 21.0897 0.0251942 22.9843 0.176482 24.8721C0.127786 26.203 0.63547 27.4942 1.57761 28.4356C2.51968 29.377 3.81126 29.8837 5.14217 29.8342C6.627 29.9883 8.12054 30.0416 9.61254 29.9939H15.6113C17.1053 30.0413 18.6008 29.9871 20.0876 29.8319C21.5537 29.6664 21.5693 29.3149 22.4524 28.4306C23.3157 27.4397 23.81 26.1808 23.8513 24.8671C24.0007 22.9805 24.0535 21.0877 24.0096 19.1958V9.59804C24.0096 8.93548 23.4725 8.39828 22.8098 8.39828H18.0108V7.19853C18.0111 7.15313 18.0088 7.10802 18.0037 7.06291C17.9293 3.16488 15.9269 0.00117164 12.0121 0.00117164V0ZM12.0163 2.39951C14.6785 2.39951 15.6156 4.53628 15.6156 7.19853V8.39828H8.41703V7.19853C8.41703 4.53511 9.35405 2.39951 12.0163 2.39951ZM2.41826 10.7981H6.01752V13.1976C6.00822 13.8604 6.5378 14.405 7.20043 14.4143C7.86307 14.4237 8.40773 13.8941 8.41703 13.2316C8.41703 13.2193 8.41703 13.2084 8.41703 13.1976V10.7981H15.6156V13.1976C15.6063 13.8604 16.1358 14.405 16.7985 14.4143C17.4611 14.4237 18.0058 13.8941 18.0151 13.2316C18.0151 13.2193 18.0151 13.2084 18.0151 13.1976V10.7981H21.6143V19.1964C21.6143 21.5874 21.6072 23.368 21.4692 24.5953C21.4734 25.3662 21.2238 26.1172 20.7589 26.732C20.4398 27.0525 21.0541 27.3056 19.822 27.4447C18.4247 27.5879 17.0195 27.638 15.6156 27.5947H9.61679C8.21544 27.6386 6.81262 27.5903 5.41764 27.4494C4.63345 27.561 3.84245 27.2971 3.28212 26.7373C2.72178 26.1773 2.45736 25.3867 2.56823 24.6023C2.42902 23.37 2.42309 21.5897 2.42309 19.1961V10.7978L2.41826 10.7981Z" fill="#2D2D2D" style="fill:#2D2D2D;fill:color(display-p3 0.1755 0.1755 0.1755);fill-opacity:1;"/>
</svg>
