<svg width="24" height="24" viewBox="0 0 24 24" fill="none" xmlns="http://www.w3.org/2000/svg">
<path d="M0 22.9091C0 23.4982 0.490909 24 1.09091 24H15.2727C15.8836 24 16.3636 23.4982 16.3636 22.9091V21.8182H0V22.9091ZM8.18182 8.72727C4.09091 8.72727 0 10.9091 0 15.2727H16.3636C16.3636 10.9091 12.2727 8.72727 8.18182 8.72727ZM2.85818 13.0909C4.06909 11.4 6.64364 10.9091 8.18182 10.9091C9.72 10.9091 12.2945 11.4 13.5055 13.0909H2.85818ZM0 17.4545H16.3636V19.6364H0V17.4545ZM18.5455 4.36364V0H16.3636V4.36364H10.9091L11.16 6.54545H21.5891L20.0618 21.8182H18.5455V24H20.4218C21.3382 24 22.0909 23.2909 22.2 22.3964L24 4.36364H18.5455Z" fill="#2D2D2D" style="fill:#2D2D2D;fill:color(display-p3 0.1755 0.1755 0.1755);fill-opacity:1;"/>
</svg>
