<svg width="26" height="34" viewBox="0 0 26 34" fill="none" xmlns="http://www.w3.org/2000/svg">
<path d="M23.5359 22.76C23.9985 22.3208 24.3668 21.792 24.6185 21.2059C24.8702 20.6198 25 19.9886 25 19.3508C25 18.7129 24.8702 18.0817 24.6185 17.4956C24.3668 16.9095 23.9985 16.3808 23.5359 15.9415C22.5891 15.0429 21.3335 14.542 20.028 14.542C18.7226 14.542 17.467 15.0429 16.5202 15.9415L13 19.4615L9.47982 15.9415C8.53298 15.0429 7.27736 14.542 5.97195 14.542C4.66655 14.542 3.41092 15.0429 2.46408 15.9415C2.00153 16.3808 1.6332 16.9095 1.3815 17.4956C1.1298 18.0817 1 18.7129 1 19.3508C1 19.9886 1.1298 20.6198 1.3815 21.2059C1.6332 21.792 2.00153 22.3208 2.46408 22.76L13 33L23.5359 22.76ZM13 10.8462C14.3057 10.8462 15.558 10.3275 16.4813 9.40422C17.4046 8.48096 17.9233 7.22876 17.9233 5.92308C17.9233 4.6174 17.4046 3.36519 16.4813 2.44194C15.558 1.51868 14.3057 1 13 1C11.6943 1 10.442 1.51868 9.51868 2.44194C8.59538 3.36519 8.07667 4.6174 8.07667 5.92308C8.07667 7.22876 8.59538 8.48096 9.51868 9.40422C10.442 10.3275 11.6943 10.8462 13 10.8462Z" stroke="#2D2D2D" style="stroke:#2D2D2D;stroke:color(display-p3 0.1755 0.1755 0.1755);stroke-opacity:1;" stroke-width="2" stroke-linecap="round" stroke-linejoin="round"/>
</svg>
