<svg width="15" height="19" viewBox="0 0 15 19" fill="none" xmlns="http://www.w3.org/2000/svg">
<g clip-path="url(#clip0_0_196)">
<path d="M10.3565 18.2639C15.0121 13.3423 15.0104 5.68781 10.3565 0.768142C10.1815 0.583133 9.88514 0.579522 9.70359 0.758419L8.73849 1.70957C8.56519 1.88014 8.56149 2.15459 8.7277 2.33183C12.5256 6.38535 12.5265 12.6462 8.7277 16.7005C8.56149 16.8778 8.56547 17.1522 8.73849 17.3228L9.70359 18.274C9.88514 18.4526 10.1815 18.449 10.3565 18.2639ZM4.75621 9.51605C4.75621 8.53406 3.94225 7.73819 2.93794 7.73819C1.93363 7.73819 1.11967 8.53406 1.11967 9.51605C1.11967 10.498 1.93363 11.2939 2.93794 11.2939C3.94225 11.2939 4.75621 10.498 4.75621 9.51605ZM7.13103 15.146C10.0269 11.9442 10.0238 7.08427 7.13103 3.88606C6.95773 3.69439 6.65686 3.68828 6.47333 3.87023L5.50766 4.82694C5.33947 4.99361 5.32811 5.26196 5.48493 5.43947C7.54668 7.77152 7.54213 11.2658 5.48493 13.5923C5.32811 13.7699 5.33919 14.0382 5.50766 14.2049L6.47333 15.1616C6.65686 15.3438 6.95801 15.3374 7.13103 15.146Z" fill="white" style="fill:white;fill-opacity:1;"/>
</g>
<defs>
<clipPath id="clip0_0_196">
<rect width="17.7786" height="14.5461" fill="white" style="fill:white;fill-opacity:1;" transform="matrix(0 1 -1 0 14.7656 0.626953)"/>
</clipPath>
</defs>
</svg>
