<svg width="23" height="27" viewBox="0 0 23 27" fill="none" xmlns="http://www.w3.org/2000/svg">
<path d="M11.5 27L7.66667 23.1429H0V0H23V23.1429H15.3333L11.5 27ZM2.55556 20.5714H8.68889L11.5 23.4L14.3111 20.5714H20.4444V2.57143H2.55556V20.5714ZM11.5 18C13.3315 18 14.8542 17.3571 16.0681 16.0714C17.2819 14.7857 17.8889 13.2857 17.8889 11.5714V5.14286H11.5C9.775 5.14286 8.27915 5.75357 7.01244 6.975C5.74574 8.19643 5.11196 9.72857 5.11111 11.5714C5.11111 12.2143 5.20183 12.825 5.38328 13.4036C5.56472 13.9821 5.81474 14.5179 6.13333 15.0107L4.72778 16.425L6.45278 18.1607L7.7625 16.875C8.3375 17.2393 8.9338 17.5179 9.55139 17.7107C10.169 17.9036 10.8185 18 11.5 18ZM11.5 15.4286C11.1806 15.4286 10.8718 15.3857 10.5736 15.3C10.2755 15.2143 9.97731 15.1071 9.67917 14.9786L14.0236 10.7036L12.2028 8.90357L7.98611 13.1464C7.87963 12.9107 7.79998 12.6591 7.74717 12.3917C7.69435 12.1243 7.66752 11.8509 7.66667 11.5714C7.66667 10.4571 8.05 9.53572 8.81667 8.80714C9.58333 8.07857 10.4778 7.71429 11.5 7.71429H15.3333V11.5714C15.3333 12.6429 14.9606 13.5536 14.2153 14.3036C13.4699 15.0536 12.5648 15.4286 11.5 15.4286Z" fill="#2D2D2D" style="fill:#2D2D2D;fill:color(display-p3 0.1755 0.1755 0.1755);fill-opacity:1;"/>
</svg>
