<svg width="24" height="24" viewBox="0 0 24 24" fill="none" xmlns="http://www.w3.org/2000/svg">
<path fill-rule="evenodd" clip-rule="evenodd" d="M9.08002 21.0001C9.0885 20.6898 8.89142 20.4107 8.59601 20.315C8.35663 20.2081 8.07623 20.2567 7.88702 20.438L7.828 20.4962C7.07025 21.2545 5.96545 21.5508 4.92987 21.2737C3.89423 20.9966 3.08521 20.188 2.80762 19.1524C2.52997 18.117 2.82599 17.012 3.58405 16.254L3.63599 16.2012C3.81702 16.0113 3.86884 15.7322 3.76819 15.4898C3.66754 15.2474 3.43335 15.087 3.1709 15.0811H3C1.92822 15.0811 0.937805 14.5093 0.401917 13.5811C-0.133972 12.6529 -0.133972 11.5093 0.401917 10.5811C0.937805 9.65289 1.92822 9.08112 3 9.08112C3.31042 9.08966 3.58929 8.89264 3.68506 8.59723C3.79187 8.35822 3.74408 8.07843 3.56403 7.88824L3.50403 7.83014C2.74573 7.07208 2.44946 5.96686 2.72687 4.93121C3.00421 3.89532 3.81317 3.08624 4.84888 2.80865C5.88458 2.53082 6.98975 2.82697 7.74805 3.58502L7.80005 3.638C7.98987 3.82355 8.27356 3.87457 8.51611 3.76691C8.58057 3.73932 8.64752 3.71783 8.71606 3.70294C8.89258 3.58405 8.99915 3.3858 9.00104 3.17291V3.00006C9.00104 1.92828 9.57281 0.937805 10.501 0.401917C11.4293 -0.133972 12.5728 -0.133972 13.501 0.401917C14.4293 0.937805 15.001 1.92828 15.001 3.00006V3.08502C15.0026 3.34698 15.1599 3.58282 15.4011 3.68512C15.6403 3.79156 15.9202 3.74347 16.11 3.56305L16.1691 3.50397C16.9269 2.74542 18.0319 2.44904 19.0677 2.72614C20.1036 3.00323 20.9128 3.81207 21.1906 4.84772C21.4683 5.88336 21.1724 6.98859 20.4143 7.74689L20.3621 7.79889C20.1763 7.98859 20.1248 8.27252 20.2321 8.51569C20.2603 8.5799 20.2817 8.64703 20.2961 8.71588C20.4157 8.89215 20.6142 8.99811 20.8271 8.99982H21C22.0718 8.99982 23.0622 9.57159 23.5981 10.4998C24.134 11.428 24.134 12.5716 23.5981 13.4998C23.0622 14.428 22.0718 14.9998 21 14.9998H20.914C20.6528 15.004 20.4184 15.1612 20.3154 15.4014C20.2125 15.6414 20.2601 15.9197 20.4371 16.1119L20.496 16.171C21.2543 16.929 21.5506 18.0342 21.2732 19.0699C20.9958 20.1058 20.1869 20.9149 19.1512 21.1924C18.1155 21.4703 17.0103 21.1741 16.252 20.4161L16.201 20.3641C16.0107 20.1834 15.7318 20.1319 15.4894 20.2325C15.2469 20.3331 15.0865 20.567 15.08 20.8294V20.9991C15.08 22.0709 14.5082 23.0613 13.58 23.5972C12.6518 24.1331 11.5082 24.1331 10.58 23.5972C9.65179 23.0613 9.08002 22.0709 9.08002 20.9991V21.0001ZM9.34503 18.461C10.373 18.8416 11.062 19.8143 11.08 20.9102V21.0001C11.08 21.5523 11.5277 22.0001 12.08 22.0001C12.6323 22.0001 13.08 21.5523 13.08 21.0001V20.825C13.0876 19.7559 13.7334 18.7952 14.7203 18.3848C15.7071 17.9744 16.8438 18.1937 17.6071 18.9417L17.667 19.003C18.0583 19.3941 18.6924 19.3939 19.0835 19.0025C19.4745 18.6111 19.4743 17.9771 19.083 17.586L19.015 17.5191C18.271 16.7535 18.056 15.6175 18.4688 14.6331C18.8816 13.6485 19.8425 13.0059 20.91 13.0001H21C21.5523 13.0001 22 12.5523 22 12.0001C22 11.4478 21.5523 11.0001 21 11.0001H20.826C19.77 10.9957 18.8173 10.3648 18.401 9.3941C18.3649 9.30988 18.3407 9.22052 18.329 9.12946C17.9957 8.17487 18.2338 7.11383 18.943 6.39313L19.004 6.33209C19.2567 6.07892 19.3551 5.71027 19.2622 5.36481C19.1693 5.01935 18.8992 4.74957 18.5535 4.65753C18.2079 4.56525 17.8394 4.66437 17.5866 4.91754L17.519 4.98395C16.7526 5.72809 15.6156 5.94269 14.6307 5.52863C13.6458 5.11481 13.0034 4.1524 12.999 3.08405V3.00006C12.999 2.44781 12.5513 2.00006 11.999 2.00006C11.4467 2.00006 10.999 2.44781 10.999 3.00006V3.17413C10.9945 4.23053 10.3631 5.18341 9.39191 5.59918C9.30792 5.63629 9.21906 5.66095 9.12799 5.67242C8.17303 6.00568 7.11157 5.76715 6.39105 5.05719L6.33099 4.99713C5.9397 4.60602 5.30554 4.60626 4.91449 4.99762C4.5235 5.38898 4.52368 6.02301 4.91498 6.41412L4.98297 6.48102C5.72925 7.23663 5.94739 8.36725 5.53595 9.34625C5.15497 10.3736 4.18262 11.0621 3.08698 11.0799H3C2.44769 11.0799 2 11.5276 2 12.0799C2 12.6321 2.44769 13.0799 3 13.0799H3.17401C4.24249 13.088 5.20282 13.7337 5.6134 14.7203C6.02393 15.7068 5.8053 16.8431 5.05792 17.607L4.99799 17.6671C4.60724 18.0582 4.60742 18.6917 4.99847 19.0826C5.38947 19.4734 6.02325 19.4732 6.414 19.0821L6.48199 19.0152C6.97961 18.5284 7.64771 18.2549 8.34393 18.2535C8.68842 18.2518 9.02942 18.3221 9.34503 18.46V18.461ZM8 12.0001C8 9.79083 9.79083 8.00006 12 8.00006C14.2091 8.00006 16 9.79083 16 12.0001C16 14.2093 14.2092 16.0001 12 16.0001C9.79083 16.0001 8 14.2093 8 12.0001ZM10 12.0001C10 13.1046 10.8954 14.0001 12 14.0001C13.1046 14.0001 14 13.1046 14 12.0001C14 10.8956 13.1046 10.0001 12 10.0001C10.8954 10.0001 10 10.8956 10 12.0001Z" fill="#2D2D2D" style="fill:#2D2D2D;fill:color(display-p3 0.1755 0.1755 0.1755);fill-opacity:1;"/>
</svg>
