<svg width="24" height="32" viewBox="0 0 24 32" fill="none" xmlns="http://www.w3.org/2000/svg">
<path d="M13.2215 3.6704C13.7217 3.2816 14.2188 2.9824 14.6617 2.7712C14.7979 6.1744 16.4069 8.7328 17.9586 10.9952L18.3798 11.6064C20.057 14.0352 21.4941 16.1168 21.6505 18.8704C21.8317 22.0416 21.0667 24.7216 19.5815 26.5888C18.1181 28.432 15.8572 29.6 12.7755 29.6C9.58381 29.6 7.18503 28.7536 5.50945 27.3344C3.84316 25.9216 2.77927 23.8448 2.4231 21.1392C2.07311 18.4784 2.69565 16.5872 3.36929 15.3744C3.50247 15.136 3.6372 14.9232 3.76883 14.7344L4.25663 15.6912C4.66736 16.4971 5.3637 17.1077 6.20008 17.3955C7.03646 17.6832 7.94812 17.6258 8.74447 17.2352C10.7669 16.2432 11.1974 13.6944 10.5563 11.9072C10.1072 10.656 9.8672 9.128 10.386 7.5968C10.9698 5.8816 12.077 4.5648 13.2215 3.6704ZM3.33832 11.7184H3.33522L3.32903 11.7248L3.31354 11.7376C3.24627 11.7902 3.18117 11.8457 3.11842 11.904C2.95569 12.0517 2.79963 12.2071 2.65074 12.3696C2.27908 12.7744 1.80211 13.376 1.35456 14.1808C0.453282 15.8048 -0.303982 18.2256 0.121882 21.4624C0.541552 24.6576 1.84082 27.328 4.03673 29.1904C6.22645 31.0464 9.19046 32 12.7755 32C16.472 32 19.4236 30.568 21.3764 28.112C23.3121 25.6784 24.1762 22.3584 23.9703 18.7296C23.772 15.248 21.937 12.6064 20.3156 10.2736L19.8525 9.6064C18.0841 7.0272 16.6888 4.6512 17.0279 1.3264C17.0451 1.15906 17.028 0.989872 16.9777 0.829807C16.9275 0.669742 16.8452 0.522385 16.7363 0.397302C16.6273 0.272219 16.4941 0.172207 16.3454 0.10376C16.1966 0.0353132 16.0355 -3.86202e-05 15.8727 3.16606e-08C15.2811 3.16606e-08 14.6028 0.1888 13.9493 0.4736C13.1925 0.80867 12.4784 1.23856 11.8231 1.7536C10.3906 2.8704 8.95817 4.5536 8.19472 6.8032C7.43281 9.0464 7.81995 11.184 8.37745 12.7408C8.74447 13.7632 8.34648 14.7728 7.74717 15.0672C7.49217 15.1918 7.20041 15.2098 6.93288 15.1174C6.66535 15.025 6.44276 14.8293 6.31162 14.5712L5.06345 12.1216C4.98533 11.9679 4.87588 11.8336 4.74264 11.7279C4.60939 11.6221 4.45554 11.5475 4.29168 11.5092C4.12783 11.4709 3.95787 11.4697 3.79355 11.5058C3.62922 11.542 3.47289 11.6145 3.33832 11.7184Z" fill="#2D2D2D" style="fill:#2D2D2D;fill:color(display-p3 0.1755 0.1755 0.1755);fill-opacity:1;"/>
</svg>
