<svg width="23" height="20" viewBox="0 0 23 20" fill="none" xmlns="http://www.w3.org/2000/svg">
<path d="M15.5556 10H17.7778V14.4444H15.5556V10Z" fill="#2D2D2D" style="fill:#2D2D2D;fill:color(display-p3 0.1755 0.1755 0.1755);fill-opacity:1;"/>
<path d="M20 4.44444V2.22222C20 0.996667 19.0033 0 17.7778 0H3.33333C1.49556 0 0 1.49556 0 3.33333V16.6667C0 19.1122 1.99333 20 3.33333 20H20C21.2256 20 22.2222 19.0033 22.2222 17.7778V6.66667C22.2222 5.44111 21.2256 4.44444 20 4.44444ZM3.33333 2.22222H17.7778V4.44444H3.33333C3.04724 4.43165 2.77712 4.30899 2.5792 4.10202C2.38127 3.89505 2.27081 3.61971 2.27081 3.33333C2.27081 3.04696 2.38127 2.77162 2.5792 2.56465C2.77712 2.35767 3.04724 2.23502 3.33333 2.22222ZM20 17.7778H3.34667C2.83333 17.7644 2.22222 17.5611 2.22222 16.6667V6.46111C2.57111 6.58667 2.94111 6.66667 3.33333 6.66667H20V17.7778Z" fill="#2D2D2D" style="fill:#2D2D2D;fill:color(display-p3 0.1755 0.1755 0.1755);fill-opacity:1;"/>
</svg>
